<?xml version="1.0" encoding="utf-8"?>
<!-- Generator: Adobe Illustrator 25.4.1, SVG Export Plug-In . SVG Version: 6.00 Build 0)  -->
<svg version="1.1" id="レイヤー_1" xmlns="http://www.w3.org/2000/svg" xmlns:xlink="http://www.w3.org/1999/xlink" x="0px"
	 y="0px" viewBox="0 0 200 144" style="enable-background:new 0 0 200 144;" xml:space="preserve">
<style type="text/css">
	.st0{fill:#0B5770;}
	.st1{fill:#0F89A3;}
	.st2{fill:#FFFFFF;}
</style>
<path class="st0" d="M192.287,123.007l-0.315-0.456L182.2,108.4l-8.284-12l0,0l-0.2-0.294v-7.685l0,0V4.99
	c-0.008-2.758-2.242-4.992-5-5H31.286c-2.758,0.008-4.992,2.242-5,5v83.431l0,0v7.687l-0.2,0.294l0,0l-8.626,12.492l-9.7,14.045
	l-0.047,0.068c-0.171,0.275-0.269,0.589-0.284,0.912v15.071c0.008,2.758,2.242,4.992,5,5h175.142c2.758-0.008,4.992-2.242,5-5
	v-15.071C192.556,123.596,192.458,123.282,192.287,123.007z"/>
<path class="st1" d="M80.5,125.677h39c0.276,0,0.5,0.224,0.5,0.5v10c0,0.276-0.224,0.5-0.5,0.5h-39c-0.276,0-0.5-0.224-0.5-0.5v-10
	C80,125.901,80.224,125.677,80.5,125.677z"/>
<rect x="35.852" y="10.115" class="st2" width="128.296" height="79.49"/>
</svg>
